<?xml version="1.0" encoding="UTF-8" standalone="no"?>
<!DOCTYPE svg PUBLIC "-//W3C//DTD SVG 1.1//EN"
 "http://www.w3.org/Graphics/SVG/1.1/DTD/svg11.dtd">
<!-- Generated by graphviz version 2.50.0 (0)
 -->
<!-- Pages: 1 -->
<svg width="201pt" height="218pt"
 viewBox="0.00 0.00 200.79 218.00" xmlns="http://www.w3.org/2000/svg" xmlns:xlink="http://www.w3.org/1999/xlink">
<g id="graph0" class="graph" transform="scale(1 1) rotate(0) translate(4 214)">
<polygon fill="white" stroke="transparent" points="-4,4 -4,-214 196.79,-214 196.79,4 -4,4"/>
<!-- sleeping -->
<g id="node1" class="node">
<title>sleeping</title>
<ellipse fill="none" stroke="black" cx="116.5" cy="-192" rx="40.09" ry="18"/>
<text text-anchor="middle" x="116.5" y="-188.3" font-family="Times,serif" font-size="14.00">sleeping</text>
</g>
<!-- sleeping&#45;&gt;sleeping -->
<g id="edge1" class="edge">
<title>sleeping&#45;&gt;sleeping</title>
<path fill="none" stroke="black" d="M152.93,-199.88C165.08,-199.88 174.79,-197.25 174.79,-192 174.79,-188.31 169.99,-185.91 162.92,-184.82"/>
<polygon fill="black" stroke="black" points="163.15,-181.33 152.93,-184.12 162.67,-188.31 163.15,-181.33"/>
<text text-anchor="middle" x="183.79" y="-188.3" font-family="Times,serif" font-size="14.00">0.4</text>
</g>
<!-- eating -->
<g id="node2" class="node">
<title>eating</title>
<ellipse fill="none" stroke="black" cx="32.5" cy="-105" rx="32.49" ry="18"/>
<text text-anchor="middle" x="32.5" y="-101.3" font-family="Times,serif" font-size="14.00">eating</text>
</g>
<!-- sleeping&#45;&gt;eating -->
<g id="edge2" class="edge">
<title>sleeping&#45;&gt;eating</title>
<path fill="none" stroke="black" d="M88.38,-179.03C77.39,-173.3 65.33,-165.57 56.5,-156 50.21,-149.18 45.26,-140.42 41.52,-132.14"/>
<polygon fill="black" stroke="black" points="44.72,-130.71 37.69,-122.78 38.24,-133.36 44.72,-130.71"/>
<text text-anchor="middle" x="65.5" y="-144.8" font-family="Times,serif" font-size="14.00">0.2</text>
</g>
<!-- running -->
<g id="node3" class="node">
<title>running</title>
<ellipse fill="none" stroke="black" cx="116.5" cy="-18" rx="38.19" ry="18"/>
<text text-anchor="middle" x="116.5" y="-14.3" font-family="Times,serif" font-size="14.00">running</text>
</g>
<!-- sleeping&#45;&gt;running -->
<g id="edge3" class="edge">
<title>sleeping&#45;&gt;running</title>
<path fill="none" stroke="black" d="M116.5,-173.88C116.5,-144 116.5,-82.11 116.5,-46.27"/>
<polygon fill="black" stroke="black" points="120,-46.05 116.5,-36.05 113,-46.05 120,-46.05"/>
<text text-anchor="middle" x="125.5" y="-101.3" font-family="Times,serif" font-size="14.00">0.4</text>
</g>
<!-- eating&#45;&gt;sleeping -->
<g id="edge4" class="edge">
<title>eating&#45;&gt;sleeping</title>
<path fill="none" stroke="black" d="M50.68,-119.98C58.31,-126.13 67.1,-133.63 74.5,-141 82.45,-148.92 90.53,-158.19 97.45,-166.59"/>
<polygon fill="black" stroke="black" points="94.93,-169.03 103.94,-174.6 100.37,-164.63 94.93,-169.03"/>
<text text-anchor="middle" x="100" y="-144.8" font-family="Times,serif" font-size="14.00">0.45</text>
</g>
<!-- eating&#45;&gt;eating -->
<g id="edge5" class="edge">
<title>eating&#45;&gt;eating</title>
<path fill="none" stroke="black" d="M61.81,-112.84C73.35,-113.23 82.99,-110.62 82.99,-105 82.99,-101.14 78.44,-98.7 71.84,-97.67"/>
<polygon fill="black" stroke="black" points="71.97,-94.18 61.81,-97.16 71.62,-101.17 71.97,-94.18"/>
<text text-anchor="middle" x="95.49" y="-101.3" font-family="Times,serif" font-size="14.00">0.45</text>
</g>
<!-- eating&#45;&gt;running -->
<g id="edge6" class="edge">
<title>eating&#45;&gt;running</title>
<path fill="none" stroke="black" d="M37.69,-87.22C41.58,-76.74 47.75,-63.48 56.5,-54 63.17,-46.76 71.69,-40.58 80.2,-35.52"/>
<polygon fill="black" stroke="black" points="81.94,-38.56 88.99,-30.65 78.54,-32.44 81.94,-38.56"/>
<text text-anchor="middle" x="65.5" y="-57.8" font-family="Times,serif" font-size="14.00">0.1</text>
</g>
<!-- running&#45;&gt;sleeping -->
<g id="edge7" class="edge">
<title>running&#45;&gt;sleeping</title>
<path fill="none" stroke="black" d="M124,-35.91C129.49,-49.42 136.35,-69.01 138.5,-87 142.16,-117.65 139.89,-126.59 130.5,-156 129.6,-158.81 128.59,-161.71 127.53,-164.58"/>
<polygon fill="black" stroke="black" points="124.19,-163.5 123.83,-174.09 130.71,-166.04 124.19,-163.5"/>
<text text-anchor="middle" x="152" y="-101.3" font-family="Times,serif" font-size="14.00">0.45</text>
</g>
<!-- running&#45;&gt;eating -->
<g id="edge8" class="edge">
<title>running&#45;&gt;eating</title>
<path fill="none" stroke="black" d="M103.94,-35.4C95.93,-45.48 85.1,-58.44 74.5,-69 69.53,-73.95 63.93,-78.96 58.47,-83.58"/>
<polygon fill="black" stroke="black" points="56.16,-80.95 50.68,-90.02 60.62,-86.35 56.16,-80.95"/>
<text text-anchor="middle" x="100" y="-57.8" font-family="Times,serif" font-size="14.00">0.25</text>
</g>
<!-- running&#45;&gt;running -->
<g id="edge9" class="edge">
<title>running&#45;&gt;running</title>
<path fill="none" stroke="black" d="M151.16,-25.87C163.16,-25.96 172.84,-23.33 172.84,-18 172.84,-14.33 168.27,-11.95 161.51,-10.84"/>
<polygon fill="black" stroke="black" points="161.38,-7.33 151.16,-10.13 160.9,-14.31 161.38,-7.33"/>
<text text-anchor="middle" x="181.84" y="-14.3" font-family="Times,serif" font-size="14.00">0.3</text>
</g>
</g>
</svg>
