<?xml version="1.0" encoding="UTF-8" standalone="no"?>
<!DOCTYPE svg PUBLIC "-//W3C//DTD SVG 1.1//EN"
 "http://www.w3.org/Graphics/SVG/1.1/DTD/svg11.dtd">
<!-- Generated by graphviz version 2.50.0 (0)
 -->
<!-- Pages: 1 -->
<svg width="289pt" height="218pt"
 viewBox="0.00 0.00 289.30 218.00" xmlns="http://www.w3.org/2000/svg" xmlns:xlink="http://www.w3.org/1999/xlink">
<g id="graph0" class="graph" transform="scale(1 1) rotate(0) translate(4 214)">
<polygon fill="white" stroke="transparent" points="-4,4 -4,-214 285.3,-214 285.3,4 -4,4"/>
<!-- healthy -->
<g id="node1" class="node">
<title>healthy</title>
<ellipse fill="none" stroke="black" cx="60.3" cy="-192" rx="36.29" ry="18"/>
<text text-anchor="middle" x="60.3" y="-188.3" font-family="Times,serif" font-size="14.00">healthy</text>
</g>
<!-- healthy&#45;&gt;healthy -->
<g id="edge1" class="edge">
<title>healthy&#45;&gt;healthy</title>
<path fill="none" stroke="black" d="M93.23,-199.87C105.05,-200.04 114.69,-197.41 114.69,-192 114.69,-188.28 110.14,-185.88 103.44,-184.79"/>
<polygon fill="black" stroke="black" points="103.43,-181.28 93.23,-184.13 102.98,-188.27 103.43,-181.28"/>
<text text-anchor="middle" x="123.69" y="-188.3" font-family="Times,serif" font-size="14.00">0.7</text>
</g>
<!-- sick -->
<g id="node2" class="node">
<title>sick</title>
<ellipse fill="none" stroke="black" cx="184.3" cy="-105" rx="27" ry="18"/>
<text text-anchor="middle" x="184.3" y="-101.3" font-family="Times,serif" font-size="14.00">sick</text>
</g>
<!-- healthy&#45;&gt;sick -->
<g id="edge2" class="edge">
<title>healthy&#45;&gt;sick</title>
<path fill="none" stroke="black" d="M87.74,-180.09C101.66,-173.97 118.5,-165.62 132.3,-156 143.69,-148.05 154.98,-137.6 164.11,-128.31"/>
<polygon fill="black" stroke="black" points="166.85,-130.51 171.22,-120.86 161.78,-125.67 166.85,-130.51"/>
<text text-anchor="middle" x="159.3" y="-144.8" font-family="Times,serif" font-size="14.00">0.3</text>
</g>
<!-- sleeping -->
<g id="node3" class="node">
<title>sleeping</title>
<ellipse fill="none" stroke="black" cx="40.3" cy="-18" rx="40.09" ry="18"/>
<text text-anchor="middle" x="40.3" y="-14.3" font-family="Times,serif" font-size="14.00">sleeping</text>
</g>
<!-- healthy&#45;&gt;sleeping -->
<g id="edge3" class="edge">
<title>healthy&#45;&gt;sleeping</title>
<path fill="none" stroke="black" d="M58.31,-173.88C54.83,-144 47.64,-82.11 43.47,-46.27"/>
<polygon fill="black" stroke="black" points="46.91,-45.58 42.28,-36.05 39.96,-46.39 46.91,-45.58"/>
<text text-anchor="middle" x="61.3" y="-101.3" font-family="Times,serif" font-size="14.00">0.2</text>
</g>
<!-- eating -->
<g id="node4" class="node">
<title>eating</title>
<ellipse fill="none" stroke="black" cx="228.3" cy="-18" rx="32.49" ry="18"/>
<text text-anchor="middle" x="228.3" y="-14.3" font-family="Times,serif" font-size="14.00">eating</text>
</g>
<!-- healthy&#45;&gt;eating -->
<g id="edge4" class="edge">
<title>healthy&#45;&gt;eating</title>
<path fill="none" stroke="black" d="M96.88,-190.48C143.14,-187.59 221,-174.79 256.3,-123 272.59,-99.1 258.97,-66.11 245.64,-43.74"/>
<polygon fill="black" stroke="black" points="248.51,-41.75 240.22,-35.15 242.59,-45.48 248.51,-41.75"/>
<text text-anchor="middle" x="272.3" y="-101.3" font-family="Times,serif" font-size="14.00">0.6</text>
</g>
<!-- running -->
<g id="node5" class="node">
<title>running</title>
<ellipse fill="none" stroke="black" cx="139.3" cy="-18" rx="38.19" ry="18"/>
<text text-anchor="middle" x="139.3" y="-14.3" font-family="Times,serif" font-size="14.00">running</text>
</g>
<!-- healthy&#45;&gt;running -->
<g id="edge5" class="edge">
<title>healthy&#45;&gt;running</title>
<path fill="none" stroke="black" d="M63.9,-173.86C70.84,-141.79 86.53,-74.16 99.3,-54 102.38,-49.13 106.35,-44.55 110.57,-40.41"/>
<polygon fill="black" stroke="black" points="113.22,-42.74 118.34,-33.47 108.55,-37.52 113.22,-42.74"/>
<text text-anchor="middle" x="94.3" y="-101.3" font-family="Times,serif" font-size="14.00">0.2</text>
</g>
<!-- sick&#45;&gt;healthy -->
<g id="edge6" class="edge">
<title>sick&#45;&gt;healthy</title>
<path fill="none" stroke="black" d="M161.18,-114.53C146,-120.69 126.1,-129.87 110.3,-141 99.58,-148.54 89.11,-158.49 80.54,-167.52"/>
<polygon fill="black" stroke="black" points="77.73,-165.41 73.54,-175.14 82.89,-170.14 77.73,-165.41"/>
<text text-anchor="middle" x="119.3" y="-144.8" font-family="Times,serif" font-size="14.00">0.4</text>
</g>
<!-- sick&#45;&gt;sick -->
<g id="edge7" class="edge">
<title>sick&#45;&gt;sick</title>
<path fill="none" stroke="black" d="M208.83,-112.75C219.8,-113.49 229.3,-110.91 229.3,-105 229.3,-101.03 225.01,-98.56 218.87,-97.59"/>
<polygon fill="black" stroke="black" points="218.94,-94.09 208.83,-97.25 218.7,-101.09 218.94,-94.09"/>
<text text-anchor="middle" x="238.3" y="-101.3" font-family="Times,serif" font-size="14.00">0.6</text>
</g>
<!-- sick&#45;&gt;sleeping -->
<g id="edge8" class="edge">
<title>sick&#45;&gt;sleeping</title>
<path fill="none" stroke="black" d="M164.58,-92.36C140.81,-78.33 100.54,-54.56 72.3,-37.89"/>
<polygon fill="black" stroke="black" points="73.98,-34.82 63.59,-32.75 70.42,-40.85 73.98,-34.82"/>
<text text-anchor="middle" x="129.3" y="-57.8" font-family="Times,serif" font-size="14.00">0.4</text>
</g>
<!-- sick&#45;&gt;eating -->
<g id="edge9" class="edge">
<title>sick&#45;&gt;eating</title>
<path fill="none" stroke="black" d="M185.74,-87.01C187.14,-76.95 189.9,-64.22 195.3,-54 197.72,-49.41 200.92,-44.99 204.36,-40.92"/>
<polygon fill="black" stroke="black" points="206.93,-43.3 211.16,-33.58 201.8,-38.54 206.93,-43.3"/>
<text text-anchor="middle" x="204.3" y="-57.8" font-family="Times,serif" font-size="14.00">0.1</text>
</g>
<!-- sick&#45;&gt;running -->
<g id="edge10" class="edge">
<title>sick&#45;&gt;running</title>
<path fill="none" stroke="black" d="M175.62,-87.61C169.19,-75.46 160.29,-58.66 152.92,-44.73"/>
<polygon fill="black" stroke="black" points="155.87,-42.83 148.1,-35.63 149.69,-46.1 155.87,-42.83"/>
<text text-anchor="middle" x="173.3" y="-57.8" font-family="Times,serif" font-size="14.00">0.5</text>
</g>
</g>
</svg>
